# xmcd
#
# Track frame offsets:
#	150
#	17235
#	32984
#	45034
#	57711
#	67904
#	78361
#	91385
#	103596
#	113097
#	125339
#	140140
#	154927
#	168349
#	183708
#	194197
#	207082
#	219706
#	235802
#	245773
#	260699
#	272561
#
# Disc length: 3745 seconds
#
# Revision: 1
# Processed by: cddbd v1.5.2PL0 Copyright (c) Steve Scherf et al.
# Submitted via: audiograbber 1.83.01
#
DISCID=4a0e9f16
DTITLE=Leo Canhoto e Robertinho - Reliquias Sertanejas
DYEAR=1900
DGENRE=
TTITLE0=O ultimo julgamento
TTITLE1=Viagem
TTITLE2=Fofinha
TTITLE3=Cinco beijos
TTITLE4=Calça comprida
TTITLE5=Apartamento 37
TTITLE6=Vou ntomá um pingão
TTITLE7=Tiro e queda
TTITLE8=A gaivota
TTITLE9=Conselho de mãe
TTITLE10=Sem vergonha
TTITLE11=Página solta
TTITLE12=Grito na noite
TTITLE13=O macaco e o patinho
TTITLE14=História de um azarado
TTITLE15=Eu e a dinha
TTITLE16=O presidente e o lavrador
TTITLE17=Lágrimas do coração
TTITLE18=Salve o lavrador
TTITLE19=Lágrimas de pai
TTITLE20=Rasto da rolinha
TTITLE21=Terezinha
EXTD=
EXTT0=
EXTT1=
EXTT2=
EXTT3=
EXTT4=
EXTT5=
EXTT6=
EXTT7=
EXTT8=
EXTT9=
EXTT10=
EXTT11=
EXTT12=
EXTT13=
EXTT14=
EXTT15=
EXTT16=
EXTT17=
EXTT18=
EXTT19=
EXTT20=
EXTT21=
PLAYORDER=
